# xmcd
# Track frame offsets:
# 150
# 15763
# 32354
# 45223
# 56509
# 71927
# 89170
# 106397
# 118020
# 137866
# 148880
# 166896
# 179881
# 192742
# 206686
#
# Disc length: 2893 seconds
# Revision: 0
# Processed by: cddbd v1.5.2PL0 Copyright (c) Steve Scherf et al.
# Submitted via: VisiTrax 2.10.0.248 - For more info visit www.synapsa.com
#
DISCID=e00b4b0f
DTITLE=Col Joye - Don't Give Up
DYEAR=2006
DGENRE=Australian Country
TTITLE0=Don't Give Up
TTITLE1=Adalida
TTITLE2=Right Or Wrong
TTITLE3=Setting The Woods On Fire
TTITLE4=Fly Like A Bird
TTITLE5=Forever And Ever Amen
TTITLE6=Good Hearted Woman
TTITLE7=Crazy Little Thing Called Love
TTITLE8=Way Out West
TTITLE9=Sunshine On Your Face
TTITLE10=You May Be Right
TTITLE11=Boot Scootin' Boogie
TTITLE12=Boom Boom Baby
TTITLE13=Achy Breaky Heart
TTITLE14=Oh Yeah Uh Huh (Bonus Track)
EXTD=
EXTT0=
EXTT1=
EXTT2=
EXTT3=
EXTT4=
EXTT5=
EXTT6=
EXTT7=
EXTT8=
EXTT9=
EXTT10=
EXTT11=
EXTT12=
EXTT13=
EXTT14=
PLAYORDER=
